<svg xmlns="http://www.w3.org/2000/svg" width="32" height="32" fill="none"><path fill="#0B0803" d="M27.942 14.832c-.646-6.607-6.535-11.434-13.141-10.771-6.581.66-11.387 6.523-10.743 13.107C4.7 23.75 10.55 28.57 17.136 27.946c6.61-.629 11.452-6.506 10.806-13.114Zm-8.945-8c.147-.001.256.029.393.066l.029.008c.053.267 0 .391-.14.619-.245.398-.517.78-.79 1.162-.481.673-.962 1.347-1.292 2.114-.714 1.664-.548 3.604-.38 5.565.148 1.716.296 3.448-.143 5.023-.53 1.896-1.857 3.135-3.52 4.06-.092.015-.194.007-.291 0a7.29 7.29 0 0 0-.061-.005l-.038-.002-.016-.03c-.095-.18-.1-.191-.032-.397.09-.265.267-.538.433-.794.064-.098.126-.194.182-.286.578-.963 1.144-2.003 1.322-3.127.221-1.403.103-2.848-.015-4.292-.15-1.832-.299-3.665.245-5.414.668-2.15 2.232-3.27 4.114-4.27Z"/></svg>