<svg xmlns="http://www.w3.org/2000/svg" aria-hidden="true" style="position:absolute;width:0;height:0;overflow:hidden">
<defs>
<symbol id="icon-chevrons-right" viewBox="0 0 32 32"><path d="M13.728 10.28 19.495 16l-5.767 5.72 1.877 1.893L23.281 16l-7.676-7.613z"/><path d="M8.939 8.387 7.062 10.28 12.829 16l-5.767 5.72 1.877 1.893L16.615 16z"/></symbol>
<symbol id="icon-envelope" viewBox="0 0 32 32"><path d="M26.667 5.333H5.334A2.67 2.67 0 0 0 2.667 8v16a2.67 2.67 0 0 0 2.667 2.667h21.333A2.67 2.67 0 0 0 29.334 24V8a2.67 2.67 0 0 0-2.667-2.667m0 2.667v.681L16 16.978 5.333 8.682v-.683h21.333zM5.333 24V12.059l9.848 7.66a1.33 1.33 0 0 0 1.638 0l9.848-7.66L26.67 24z"/></symbol>
<symbol id="icon-facebook" viewBox="0 0 32 32"><path d="M29.333 16.405C29.333 8.996 23.364 2.99 16 2.99S2.667 8.996 2.667 16.405c0 6.696 4.876 12.245 11.25 13.252v-9.374h-3.385v-3.878h3.385V13.45c0-3.362 1.991-5.219 5.036-5.219 1.459 0 2.985.262 2.985.262v3.301h-1.681c-1.656 0-2.173 1.034-2.173 2.095v2.516h3.698l-.591 3.878h-3.107v9.374c6.374-1.006 11.25-6.556 11.25-13.252z"/></symbol>
<symbol id="icon-favicon" viewBox="0 0 32 32"><path d="M27.942 14.832C27.296 8.224 21.407 3.397 14.801 4.06 8.22 4.721 3.414 10.583 4.058 17.167s6.493 11.403 13.078 10.778c6.609-.629 11.452-6.505 10.806-13.113m-8.945-8.001c.146 0 .256.029.392.066l.029.008c.053.267 0 .392-.14.619-.245.398-.517.78-.79 1.162-.481.674-.962 1.347-1.292 2.114-.715 1.664-.548 3.604-.38 5.565.147 1.716.296 3.448-.144 5.023-.529 1.895-1.857 3.135-3.52 4.059a1.2 1.2 0 0 1-.292 0l-.061-.005-.037-.002-.016-.03c-.095-.18-.101-.191-.032-.396.089-.266.266-.538.433-.795q.097-.148.181-.286c.578-.963 1.145-2.003 1.322-3.127.222-1.403.104-2.848-.014-4.292-.15-1.832-.299-3.666.245-5.415.668-2.149 2.232-3.27 4.114-4.271z"/></symbol>
<symbol id="icon-instagramm" viewBox="0 0 32 32"><path d="M15.998 6.161c3.206 0 3.585.014 4.846.071 1.172.052 1.804.248 2.226.412.558.216.961.478 1.378.895.422.422.679.82.9 1.378.164.422.361 1.059.412 2.226.056 1.266.071 1.645.071 4.847s-.014 3.585-.071 4.847c-.052 1.172-.248 1.804-.412 2.227a3.7 3.7 0 0 1-.895 1.377c-.422.422-.82.679-1.378.9-.422.164-1.06.361-2.226.412-1.266.056-1.645.071-4.847.071s-3.585-.014-4.847-.071c-1.172-.052-1.804-.248-2.226-.412a3.7 3.7 0 0 1-1.378-.895 3.8 3.8 0 0 1-.9-1.378c-.164-.422-.361-1.06-.412-2.226-.056-1.266-.071-1.645-.071-4.847s.014-3.585.071-4.847c.052-1.172.248-1.804.412-2.226.216-.558.478-.961.895-1.378.422-.422.82-.679 1.378-.9.422-.164 1.059-.361 2.226-.412 1.261-.056 1.641-.071 4.847-.071zm0-2.16c-3.258 0-3.665.014-4.945.071-1.275.056-2.151.262-2.91.558a5.85 5.85 0 0 0-2.127 1.387A5.9 5.9 0 0 0 4.629 8.14c-.295.764-.502 1.636-.558 2.91C4.015 12.335 4 12.742 4 15.999s.014 3.665.071 4.945c.056 1.275.262 2.151.558 2.91a5.9 5.9 0 0 0 1.387 2.127 5.9 5.9 0 0 0 2.123 1.383c.764.295 1.636.502 2.91.558 1.279.056 1.687.071 4.945.071s3.666-.014 4.945-.071c1.275-.056 2.151-.262 2.91-.558.787-.305 1.458-.717 2.123-1.383s1.078-1.336 1.383-2.123c.295-.764.502-1.635.558-2.91.056-1.279.071-1.687.071-4.945s-.014-3.665-.071-4.945c-.056-1.275-.262-2.151-.558-2.91a5.6 5.6 0 0 0-1.373-2.133 5.9 5.9 0 0 0-2.123-1.383c-.764-.295-1.635-.502-2.91-.558-1.284-.061-1.692-.075-4.949-.075L15.999 4z"/><path d="M15.998 9.836a6.164 6.164 0 1 0 6.163 6.163 6.164 6.164 0 0 0-6.163-6.163m0 10.161a3.998 3.998 0 1 1 0-7.996 3.998 3.998 0 0 1 0 7.996m7.845-10.405a1.439 1.439 0 1 1-2.877 0 1.439 1.439 0 0 1 2.877 0"/></symbol>
<symbol id="icon-logo" viewBox="0 0 56 32"><path d="M22.523 8.6a5.026 5.026 0 1 0-10.004.98 5.026 5.026 0 0 0 10.004-.98m-3.746-3.351c.061 0 .107.012.164.028l.012.003c.022.112 0 .164-.059.259a9 9 0 0 1-.331.486c-.201.282-.403.564-.541.886-.299.697-.23 1.51-.159 2.331.062.719.124 1.444-.06 2.104-.222.794-.778 1.313-1.474 1.7a.6.6 0 0 1-.122 0l-.025-.002-.016-.001-.007-.013c-.04-.075-.042-.08-.013-.166.037-.111.111-.225.181-.333q.041-.062.076-.12c.242-.403.479-.839.554-1.31.093-.588.043-1.193-.006-1.797-.063-.767-.125-1.535.102-2.268.28-.9.935-1.37 1.723-1.789zM34.356 23.2a4.899 4.899 0 1 0-9.731 1.138 4.899 4.899 0 0 0 9.731-1.138m-5.424-3.171c.65-.048 1.258.11 1.782.5.848.631 1.281 1.673 1.424 2.694.152 1.077.137 2.573-.565 3.475-.383.492-.867.691-1.466.765a2.66 2.66 0 0 1-1.8-.482c-.825-.595-1.249-1.573-1.402-2.553-.175-1.116-.169-2.678.555-3.62.385-.501.866-.7 1.472-.778zM6.45.05c.872-.114 1.858-.025 2.706.189.516.13 1.03.307 1.558.381.303.043.621.039.927.045.05.849.213 2.883.115 3.63-.156.03-.276.022-.433 0-.161-.186-.237-.602-.333-.844a3.5 3.5 0 0 0-1.934-1.925c-1.102-.452-2.417-.394-3.502.075-1.14.493-2.069 1.478-2.522 2.633-.701 1.788-.696 4.083.09 5.843.545 1.22 1.515 2.293 2.784 2.769 1.211.455 2.528.32 3.688-.212.518-.264.997-.657 1.306-1.156.174-.282.303-.818.579-1l.077.031c.297.376.408 1.55.506 2.055-1.118.986-2.468 1.639-3.951 1.835-1.941.255-3.967-.137-5.535-1.347C1.148 11.95.281 10.219.067 8.445c-.249-2.062.206-4.142 1.511-5.783C2.78 1.15 4.549.266 6.452.048zm36.452 4.897c-.52-.129-1.148-.199-1.681-.133-1.243.122-2.306.601-3.114 1.576a5.33 5.33 0 0 0-1.182 3.9c.124 1.198.675 2.389 1.63 3.147 1.004.797 2.422 1.021 3.668.874 1.106-.131 2.086-.608 2.772-1.501.314-.408.542-.869.721-1.35l-.066-.064c-.106-.104-.215-.212-.358-.255l-.033.014a.17.17 0 0 0-.097.08c-.591.871-1.269 1.447-2.328 1.645-.825.154-1.646.012-2.338-.473a3.6 3.6 0 0 1-1.24-1.578c1.266-.751 2.642-1.511 4.099-1.809.288-.059.582-.092.875-.125.308-.035.615-.069.914-.134.2-.043.344-.084.412-.296.17-.533-.099-1.403-.367-1.862-.491-.84-1.353-1.423-2.288-1.655zm-1.288.847c.237.001.49.018.718.081.386.106.735.335.923.696.13.25.232.651.13.924-.086.23-.272.387-.477.508-.256.151-.563.248-.859.342q-.152.047-.295.096c-.517.179-1.026.373-1.519.612-.113.05-.255.14-.407.236-.285.18-.602.38-.817.377-.115-.096-.144-.176-.156-.32-.08-.958.306-2.047.925-2.771.454-.53 1.166-.726 1.834-.78zm10.6-.939a5.7 5.7 0 0 0-1.111-.042c-1.262.103-2.328.563-3.154 1.545a5.3 5.3 0 0 0-1.211 3.904c.111 1.168.657 2.363 1.577 3.114.991.808 2.469 1.084 3.716.943 1.11-.126 2.107-.647 2.8-1.528.319-.409.569-.868.739-1.357l-.067-.06c-.115-.105-.251-.229-.396-.241-.594.894-1.305 1.524-2.382 1.741-.812.164-1.6.044-2.297-.418-.598-.397-1.033-.975-1.343-1.616 1.369-.931 3.053-1.645 4.68-1.946.202-.037.407-.053.612-.069.17-.013.339-.026.507-.052.219-.033.44-.083.489-.333.138-.704-.14-1.552-.556-2.118C54.19 5.468 53.25 5 52.214 4.856zm-1.203.973c.424-.034.838-.055 1.246.095.392.143.708.426.879.81.113.252.162.535.055.798a.9.9 0 0 1-.301.378c-.308.225-1.07.491-1.732.722-.326.114-.629.22-.841.308-.34.152-.669.336-.996.52q-.272.155-.546.3c-.154-.938-.057-1.894.453-2.716.422-.679 1.017-1.038 1.783-1.213zM19.573 16.109c1.004-.006 3.825-.131 4.586.07.064.087.058.089.05.197-.176.296-.551.416-.812.628a.95.95 0 0 0-.331.488c-.168.709-.102 1.528-.102 2.256l-.02 3.074c-.005.733.018 1.483-.068 2.212-.123 1.043-.583 2.012-1.426 2.662-1.05.81-2.517.99-3.801.816-1.124-.152-2.221-.639-2.921-1.562-.634-.837-.795-1.815-.66-2.838a3.3 3.3 0 0 1 .146-.528 2.5 2.5 0 0 1 1.339-1.433c.667-.286 1.508-.307 2.178-.018.326.14.531.381.651.715.073.204.097.379.004.577-.27.255-.878-.087-1.256.019a1.28 1.28 0 0 0-.782.658c-.29.55-.297 1.268-.089 1.846.185.515.603.931 1.095 1.159.585.27 1.407.338 2.018.111.473-.176.821-.552 1.012-1.014.164-.398.242-.856.28-1.283.087-.963.196-6.777-.016-7.406-.224-.663-.986-.683-1.161-1.087a.46.46 0 0 1 .049-.251l.038-.067zm20.745 10.772c.428-1.06.798-2.152 1.192-3.225.308-.836.688-1.7.876-2.57a1.1 1.1 0 0 0 .006-.554c-.158-.565-.887-.52-1.052-.956.023-.096.009-.137.101-.196.169-.108 3.144-.119 3.509-.073.121.015.208.042.288.14.008.21-.042.305-.231.412-.303.171-.688.258-.915.539-.357.443-1.702 4.23-2.034 5.091l-1.109 2.878c-.279.723-.541 1.508-.956 2.166-.252.398-.591.783-1.001 1.02-.599.345-1.359.408-2.022.222-.515-.145-.986-.464-1.233-.949a1.75 1.75 0 0 1-.1-1.304c.107-.305.354-.557.648-.689.19-.085.502-.158.699-.051.469.255.163 1.097.343 1.546a.53.53 0 0 0 .303.319c.251.101.686-.037.912-.147.764-.373 1.085-1.573 1.339-2.315-.321.006-.691.045-1.007-.01a.5.5 0 0 1-.155-.047c-.105-.061-.172-.171-.226-.276-.249-.486-.418-1.051-.613-1.563l-1.212-3.191c-.239-.627-.455-1.281-.748-1.884-.218-.45-.51-.909-.959-1.157-.223-.123-.516-.121-.667-.345-.026-.152.001-.245.048-.39.804-.033 4.036-.117 4.63.049a.64.64 0 0 1-.007.382c-.071.176-.412.231-.569.294-.169.068-.316.171-.382.349-.072.197.024.513.081.712.246.872.643 1.734.97 2.583.409 1.06.777 2.16 1.253 3.191zM34.627.842c.714-.037 1.391.054 2.015.428.455.273.841.683.956 1.214.063.288.043.593-.125.844-.182.272-.55.484-.873.524-.194.024-.422-.002-.578-.128-.361-.292-.193-.81-.261-1.209a.73.73 0 0 0-.335-.512 1.42 1.42 0 0 0-1.039-.146c-.279.077-.48.274-.608.528-.409.807-.183 1.861.07 2.677.856.021 1.716.004 2.573.003.002.363-.004.721-.032 1.083-.827-.001-1.656-.013-2.483.018-.053.85-.032 1.714-.037 2.566-.008 1.275-.134 2.683.159 3.924q.064.17.153.331c.258.469.416.419.875.57.156.051.247.115.315.26a.4.4 0 0 1-.098.269c-.041.026-.057.041-.11.05-.166.032-4.158.015-4.384-.023-.155-.026-.264-.06-.362-.192.064-.377.484-.35.736-.594.289-.279.434-.653.514-1.04.175-.842.107-1.795.104-2.655l-.016-3.479-1.633-.006c-.033-.359-.035-.722-.045-1.083l1.626-.001a4.3 4.3 0 0 1-.194-.75 2.85 2.85 0 0 1 .533-2.123c.614-.809 1.601-1.222 2.585-1.35z"/><path d="M27.87.843c.658-.055 1.289-.007 1.88.316.472.258.874.684 1.019 1.212.09.327.099.741-.085 1.038a.86.86 0 0 1-.589.379c-.219.041-.508.04-.69-.106-.345-.277-.114-.81-.191-1.178-.046-.221-.225-.409-.418-.515-.305-.167-.744-.188-1.074-.088a.97.97 0 0 0-.606.518c-.364.743-.088 1.882.162 2.622.82.049 1.658.011 2.48.015.021.367.002.726-.02 1.092q-1.253-.003-2.505.009a71 71 0 0 0-.046 3.133c-.003 1.076-.11 2.285.206 3.323.347.76 1.067.888 1.237 1.294-.026.074-.015.087-.089.13-.263.157-4.261.127-4.618.042-.014-.049-.032-.105-.034-.155-.011-.317.489-.45.681-.64.267-.264.399-.753.462-1.117.139-.818.095-1.72.094-2.549l-.007-3.463-1.628-.007c-.025-.361-.024-.721-.023-1.083q.779.009 1.558-.002c-.08-.265-.165-.53-.206-.804-.111-.745.051-1.482.507-2.088.612-.814 1.565-1.191 2.545-1.329z"/></symbol>
<symbol id="icon-map" viewBox="0 0 32 32"><path d="M16 18.667c2.941 0 5.333-2.392 5.333-5.333S18.941 8.001 16 8.001s-5.333 2.392-5.333 5.333 2.392 5.333 5.333 5.333m0-8c1.471 0 2.667 1.196 2.667 2.667S17.471 16.001 16 16.001s-2.667-1.196-2.667-2.667 1.196-2.667 2.667-2.667"/><path d="M15.227 29.085a1.33 1.33 0 0 0 1.546 0c.405-.287 9.932-7.165 9.893-15.752 0-5.881-4.785-10.667-10.667-10.667S5.332 7.451 5.332 13.326c-.039 8.593 9.488 15.472 9.893 15.759zM16 5.333c4.412 0 8 3.588 8 8.007.028 5.917-5.851 11.231-8 12.973-2.148-1.744-8.028-7.059-8-12.98 0-4.412 3.588-8 8-8"/></symbol>
<symbol id="icon-map-pin" viewBox="0 0 32 32"><path d="M16 22.667 17.333 20v-6.856c2.295-.596 4-2.667 4-5.144 0-2.941-2.392-5.333-5.333-5.333S10.667 5.059 10.667 8c0 2.477 1.705 4.548 4 5.144V20zM13.333 8c0-1.471 1.196-2.667 2.667-2.667S18.667 6.529 18.667 8 17.471 10.667 16 10.667 13.333 9.471 13.333 8"/><path d="m21.689 14.084-.711 2.571c3.455.955 5.688 2.791 5.688 4.679 0 2.523-4.38 5.333-10.667 5.333S5.332 23.856 5.332 21.334c0-1.888 2.233-3.724 5.689-4.68l-.711-2.571c-4.716 1.304-7.645 4.081-7.645 7.251 0 4.485 5.857 8 13.333 8s13.333-3.515 13.333-8c0-3.169-2.929-5.947-7.644-7.249z"/></symbol>
<symbol id="icon-menu" viewBox="0 0 32 32"><path d="M5.333 8h21.333v2.667H5.333zm0 6.667h21.333v2.667H5.333zm0 6.666h21.333V24H5.333z"/></symbol>
<symbol id="icon-phone" viewBox="0 0 32 32"><path d="M23.61 16.391a1.34 1.34 0 0 0-.942-.391 1.33 1.33 0 0 0-.942.391l-2.125 2.125c-.985-.293-2.824-.96-3.989-2.125s-1.832-3.004-2.125-3.989l2.125-2.125a1.34 1.34 0 0 0 .391-.942 1.33 1.33 0 0 0-.391-.942L10.279 3.06a1.34 1.34 0 0 0-.942-.391 1.33 1.33 0 0 0-.942.391L4.779 6.676a2.66 2.66 0 0 0-.781 1.913c.031 1.899.533 8.493 5.731 13.691s11.792 5.699 13.692 5.731h.037c.704 0 1.369-.277 1.873-.781l3.616-3.616a1.34 1.34 0 0 0 .391-.942 1.33 1.33 0 0 0-.391-.942l-5.333-5.335zm-.17 8.949c-1.664-.028-7.357-.475-11.831-4.949C7.121 15.903 6.686 10.19 6.66 8.559l2.673-2.673 3.448 3.448-1.724 1.724a1.33 1.33 0 0 0-.362 1.216c.032.153.815 3.789 3.028 6.003s5.849 2.996 6.003 3.028a1.32 1.32 0 0 0 1.216-.361l1.725-1.724 3.448 3.448-2.675 2.673z"/></symbol>
<symbol id="icon-star-filled" viewBox="0 0 32 32"><path d="M14.761 4.816c.458-1.089 2.019-1.089 2.478 0l2.705 6.425c.193.459.63.772 1.132.812l7.021.556c1.19.094 1.672 1.561.766 2.328l-5.349 4.527a1.32 1.32 0 0 0-.432 1.314l1.634 6.769c.277 1.147-.986 2.053-2.004 1.439l-6.011-3.627a1.36 1.36 0 0 0-1.399 0l-6.011 3.627c-1.018.615-2.281-.292-2.004-1.439l1.634-6.769a1.32 1.32 0 0 0-.432-1.314l-5.35-4.527c-.906-.767-.424-2.234.766-2.328l7.021-.556c.502-.04.938-.353 1.132-.812l2.705-6.425z"/></symbol>
<symbol id="icon-star-outline" viewBox="0 0 32 32"><path stroke-width="1.333" d="M15.375 5.076c.229-.545 1.021-.545 1.25 0l2.704 6.424a2.01 2.01 0 0 0 1.694 1.219l7.021.556c.61.048.828.78.388 1.154l-5.35 4.527a1.99 1.99 0 0 0-.65 1.98l1.635 6.768c.133.549-.482 1.031-1.013.711h-.001l-6.009-3.626a2.03 2.03 0 0 0-2.089 0l-6.01 3.626c-.531.32-1.146-.162-1.013-.711l1.635-6.768a1.99 1.99 0 0 0-.65-1.98l-5.35-4.527a.656.656 0 0 1 .388-1.154l7.021-.556A2.01 2.01 0 0 0 12.67 11.5z"/></symbol>
<symbol id="icon-x" viewBox="0 0 32 32"><path d="M22.901 5.657h3.68l-8.04 9.037L28 26.991h-7.406l-5.801-7.458-6.637 7.458H4.474l8.6-9.666L4 5.657h7.594l5.243 6.817zM21.61 24.824h2.039L10.486 7.709H8.298z"/></symbol>
<symbol id="icon-x-close" viewBox="0 0 32 32"><path d="m21.589 8.459-5.657 5.656-5.656-5.656-1.885 1.885L14.047 16l-5.656 5.656 1.885 1.885 5.656-5.656 5.657 5.656 1.885-1.885L17.818 16l5.656-5.656z"/></symbol>
<symbol id="icon-chevrons-right1" viewBox="0 0 32 32"><path d="M13.728 10.28 19.495 16l-5.767 5.72 1.877 1.893L23.281 16l-7.676-7.613z"/><path d="M8.939 8.387 7.062 10.28 12.829 16l-5.767 5.72 1.877 1.893L16.615 16z"/></symbol>
</defs>
</svg>